<svg width="30" height="36" viewBox="0 0 30 36" fill="none" xmlns="http://www.w3.org/2000/svg">
<path d="M30 36H0V0H30V36Z" stroke="#E5E7EB"/>
<path d="M30 32.75H0V2.75H30V32.75Z" stroke="#E5E7EB"/>
<path d="M1.875 4.625C2.91211 4.625 3.75 5.46289 3.75 6.5V26.1875C3.75 26.7031 4.17188 27.125 4.6875 27.125H28.125C29.1621 27.125 30 27.9629 30 29C30 30.0371 29.1621 30.875 28.125 30.875H4.6875C2.09766 30.875 0 28.7773 0 26.1875V6.5C0 5.46289 0.837891 4.625 1.875 4.625ZM7.5 10.25C7.5 9.21289 8.33789 8.375 9.375 8.375H20.625C21.6621 8.375 22.5 9.21289 22.5 10.25C22.5 11.2871 21.6621 12.125 20.625 12.125H9.375C8.33789 12.125 7.5 11.2871 7.5 10.25ZM9.375 14H16.875C17.9121 14 18.75 14.8379 18.75 15.875C18.75 16.9121 17.9121 17.75 16.875 17.75H9.375C8.33789 17.75 7.5 16.9121 7.5 15.875C7.5 14.8379 8.33789 14 9.375 14ZM9.375 19.625H24.375C25.4121 19.625 26.25 20.4629 26.25 21.5C26.25 22.5371 25.4121 23.375 24.375 23.375H9.375C8.33789 23.375 7.5 22.5371 7.5 21.5C7.5 20.4629 8.33789 19.625 9.375 19.625Z" fill="#10B981"/>
</svg>
