<svg width="30" height="36" viewBox="0 0 30 36" fill="none" xmlns="http://www.w3.org/2000/svg">
<path d="M30 36H0V0H30V36Z" stroke="#E5E7EB"/>
<path d="M30 32.75H0V2.75H30V32.75Z" stroke="#E5E7EB"/>
<path d="M11.7188 4.625H3.28125C2.50195 4.625 1.875 5.25195 1.875 6.03125V14.4688C1.875 15.0371 2.21484 15.5527 2.74219 15.7695C3.26953 15.9863 3.87305 15.8691 4.27734 15.4648L6.62109 13.1211L11.25 17.75L6.62109 22.3789L4.27734 20.0352C3.87305 19.6309 3.26953 19.5137 2.74219 19.7305C2.21484 19.9473 1.875 20.4629 1.875 21.0312V29.4688C1.875 30.248 2.50195 30.875 3.28125 30.875H11.7188C12.2871 30.875 12.8027 30.5352 13.0195 30.0078C13.2363 29.4805 13.1191 28.877 12.7148 28.4727L10.3711 26.1289L15 21.5L19.6289 26.1289L17.2852 28.4727C16.8809 28.877 16.7637 29.4805 16.9805 30.0078C17.1973 30.5352 17.7129 30.875 18.2812 30.875H26.7188C27.498 30.875 28.125 30.248 28.125 29.4688V21.0312C28.125 20.4629 27.7852 19.9473 27.2578 19.7305C26.7305 19.5137 26.127 19.6309 25.7227 20.0352L23.3789 22.3789L18.75 17.75L23.3789 13.1211L25.7227 15.4648C26.127 15.8691 26.7305 15.9863 27.2578 15.7695C27.7852 15.5527 28.125 15.0371 28.125 14.4688V6.03125C28.125 5.25195 27.498 4.625 26.7188 4.625H18.2812C17.7129 4.625 17.1973 4.96484 16.9805 5.49219C16.7637 6.01953 16.8809 6.62305 17.2852 7.02734L19.6289 9.37109L15 14L10.3711 9.37109L12.7148 7.02734C13.1191 6.62305 13.2363 6.01953 13.0195 5.49219C12.8027 4.96484 12.2871 4.625 11.7188 4.625Z" fill="#1E3A8A"/>
</svg>
