<svg width="38" height="36" viewBox="0 0 38 36" fill="none" xmlns="http://www.w3.org/2000/svg">
<path d="M37.75 36H0.25V0H37.75V36Z" stroke="#E5E7EB"/>
<g clip-path="url(#clip0_353_1794)">
<path d="M18.3262 10.6777C18.7423 10.3086 18.9063 9.72852 18.6895 9.21289C18.5548 8.90234 18.4083 8.59766 18.2442 8.30469L18.0626 7.98828C17.8868 7.69531 17.6934 7.4082 17.4883 7.13281C17.1544 6.6875 16.5684 6.54102 16.0411 6.7168L14.3887 7.26172C13.7618 6.74609 13.0411 6.32422 12.2676 6.03711L11.9102 4.33789C11.7989 3.79297 11.377 3.35938 10.8262 3.29492C10.4395 3.24219 10.0469 3.21875 9.6485 3.21875H9.60748C9.20905 3.21875 8.81647 3.24219 8.42975 3.28906C7.87897 3.35352 7.45709 3.79297 7.34577 4.33203L6.98834 6.03711C6.20905 6.33008 5.4942 6.74609 4.86725 7.26172L3.20905 6.72266C2.6817 6.54688 2.09577 6.69336 1.76178 7.13867C1.5567 7.41406 1.36334 7.70117 1.1817 7.99414L1.00592 8.30469C0.841859 8.59766 0.695375 8.90234 0.560609 9.21875C0.343813 9.72852 0.507875 10.3086 0.923891 10.6836L2.22467 11.8438C2.16022 12.2363 2.12506 12.6465 2.12506 13.0625C2.12506 13.4785 2.16022 13.8887 2.22467 14.2871L0.923891 15.4473C0.507875 15.8164 0.343813 16.3965 0.560609 16.9121C0.695375 17.2227 0.841859 17.5273 1.00592 17.8262L1.1817 18.1309C1.35748 18.4297 1.55084 18.7109 1.76178 18.9863C2.09577 19.4316 2.6817 19.5781 3.20905 19.4023L4.86139 18.8574C5.48834 19.373 6.20905 19.7949 6.98249 20.082L7.33991 21.7871C7.45123 22.332 7.87311 22.7656 8.42389 22.8301C8.81647 22.877 9.21491 22.9004 9.6192 22.9004C10.0235 22.9004 10.4219 22.877 10.8145 22.8301C11.3653 22.7656 11.7872 22.3262 11.8985 21.7871L12.2559 20.082C13.0352 19.7891 13.7501 19.373 14.377 18.8574L16.0294 19.4023C16.5567 19.5781 17.1426 19.4316 17.4766 18.9863C17.6817 18.7109 17.8751 18.4297 18.0508 18.1309L18.2325 17.8145C18.3965 17.5215 18.543 17.2168 18.6778 16.9062C18.8946 16.3965 18.7305 15.8164 18.3145 15.4414L17.0137 14.2812C17.0782 13.8828 17.1133 13.4727 17.1133 13.0566C17.1133 12.6406 17.0782 12.2305 17.0137 11.832L18.3145 10.6719L18.3262 10.6777ZM6.81256 13.0625C6.81256 12.3166 7.10888 11.6012 7.63633 11.0738C8.16377 10.5463 8.87914 10.25 9.62506 10.25C10.371 10.25 11.0864 10.5463 11.6138 11.0738C12.1412 11.6012 12.4376 12.3166 12.4376 13.0625C12.4376 13.8084 12.1412 14.5238 11.6138 15.0512C11.0864 15.5787 10.371 15.875 9.62506 15.875C8.87914 15.875 8.16377 15.5787 7.63633 15.0512C7.10888 14.5238 6.81256 13.8084 6.81256 13.0625ZM29.8223 32.0762C30.1915 32.4922 30.7716 32.6562 31.2872 32.4395C31.5977 32.3047 31.9024 32.1582 32.1954 31.9941L32.5118 31.8125C32.8048 31.6367 33.0919 31.4434 33.3673 31.2383C33.8126 30.9043 33.959 30.3184 33.7833 29.791L33.2383 28.1387C33.754 27.5117 34.1758 26.791 34.463 26.0176L36.168 25.6602C36.713 25.5488 37.1465 25.127 37.211 24.5762C37.2579 24.1836 37.2813 23.7852 37.2813 23.3809C37.2813 22.9766 37.2579 22.5781 37.211 22.1855C37.1465 21.6348 36.7071 21.2129 36.168 21.1016L34.463 20.7383C34.17 19.959 33.754 19.2441 33.2383 18.6172L33.7833 16.9648C33.959 16.4375 33.8126 15.8516 33.3673 15.5176C33.0919 15.3125 32.8048 15.1191 32.5118 14.9375L32.2012 14.7617C31.9083 14.5977 31.6036 14.4512 31.2872 14.3164C30.7774 14.0996 30.1973 14.2637 29.8223 14.6797L28.6622 15.9805C28.2637 15.916 27.8536 15.8809 27.4376 15.8809C27.0215 15.8809 26.6114 15.916 26.213 15.9805L25.0528 14.6797C24.6837 14.2637 24.1036 14.0996 23.588 14.3164C23.2774 14.4512 22.9727 14.5977 22.6739 14.7617L22.3692 14.9375C22.0704 15.1133 21.7891 15.3066 21.5137 15.5176C21.0684 15.8516 20.9219 16.4375 21.0977 16.9648L21.6426 18.6172C21.127 19.2441 20.7051 19.9648 20.418 20.7383L18.713 21.0898C18.168 21.2012 17.7344 21.623 17.67 22.1738C17.6231 22.5664 17.5997 22.9648 17.5997 23.3691C17.5997 23.7734 17.6231 24.1719 17.67 24.5645C17.7344 25.1152 18.1739 25.5371 18.713 25.6484L20.418 26.0059C20.711 26.7852 21.127 27.5 21.6426 28.127L21.0977 29.7793C20.9219 30.3066 21.0684 30.8926 21.5137 31.2266C21.7891 31.4316 22.0704 31.625 22.3692 31.8008L22.6856 31.9824C22.9786 32.1465 23.2833 32.293 23.5938 32.4277C24.1036 32.6445 24.6837 32.4805 25.0587 32.0645L26.2188 30.7637C26.6173 30.8281 27.0274 30.8633 27.4434 30.8633C27.8594 30.8633 28.2696 30.8281 28.668 30.7637L29.8282 32.0645L29.8223 32.0762ZM27.4376 20.5625C27.8069 20.5625 28.1726 20.6352 28.5139 20.7766C28.8551 20.9179 29.1651 21.1251 29.4263 21.3863C29.6875 21.6474 29.8946 21.9575 30.036 22.2987C30.1773 22.6399 30.2501 23.0057 30.2501 23.375C30.2501 23.7443 30.1773 24.1101 30.036 24.4513C29.8946 24.7925 29.6875 25.1026 29.4263 25.3637C29.1651 25.6249 28.8551 25.8321 28.5139 25.9734C28.1726 26.1148 27.8069 26.1875 27.4376 26.1875C27.0682 26.1875 26.7025 26.1148 26.3613 25.9734C26.02 25.8321 25.71 25.6249 25.4488 25.3637C25.1877 25.1026 24.9805 24.7925 24.8392 24.4513C24.6978 24.1101 24.6251 23.7443 24.6251 23.375C24.6251 23.0057 24.6978 22.6399 24.8392 22.2987C24.9805 21.9575 25.1877 21.6474 25.4488 21.3863C25.71 21.1251 26.02 20.9179 26.3613 20.7766C26.7025 20.6352 27.0682 20.5625 27.4376 20.5625Z" fill="#F59E0B"/>
</g>
<defs>
<clipPath id="clip0_353_1794">
<path d="M0.25 2.75H37.75V32.75H0.25V2.75Z" fill="white"/>
</clipPath>
</defs>
</svg>
