<svg width="30" height="36" viewBox="0 0 30 36" fill="none" xmlns="http://www.w3.org/2000/svg">
<path d="M30 36H0V0H30V36Z" stroke="#E5E7EB"/>
<g clip-path="url(#clip0_353_1786)">
<path d="M15 2.75C15.2696 2.75 15.5391 2.80859 15.7852 2.91992L26.8184 7.60156C28.1074 8.14648 29.0684 9.41797 29.0625 10.9531C29.0332 16.7656 26.6426 27.4004 16.5469 32.2344C15.5684 32.7031 14.4317 32.7031 13.4532 32.2344C3.35745 27.4004 0.966824 16.7656 0.937527 10.9531C0.931667 9.41797 1.8926 8.14648 3.18167 7.60156L14.2207 2.91992C14.461 2.80859 14.7305 2.75 15 2.75ZM15 6.66406V28.8125C23.086 24.8984 25.2598 16.2324 25.3125 11.0352L15 6.66406Z" fill="#10B981"/>
</g>
<defs>
<clipPath id="clip0_353_1786">
<path d="M0 2.75H30V32.75H0V2.75Z" fill="white"/>
</clipPath>
</defs>
</svg>
