<svg width="14" height="14" viewBox="0 0 14 14" fill="none" xmlns="http://www.w3.org/2000/svg">
<g clip-path="url(#clip0_89_718)">
<path d="M4.375 0C4.73867 0 5.03125 0.292578 5.03125 0.65625V1.75H8.96875V0.65625C8.96875 0.292578 9.26133 0 9.625 0C9.98867 0 10.2812 0.292578 10.2812 0.65625V1.75H11.375C12.3402 1.75 13.125 2.53477 13.125 3.5V3.9375V5.25V12.25C13.125 13.2152 12.3402 14 11.375 14H2.625C1.65977 14 0.875 13.2152 0.875 12.25V5.25V3.9375V3.5C0.875 2.53477 1.65977 1.75 2.625 1.75H3.71875V0.65625C3.71875 0.292578 4.01133 0 4.375 0ZM11.8125 5.25H2.1875V12.25C2.1875 12.4906 2.38437 12.6875 2.625 12.6875H11.375C11.6156 12.6875 11.8125 12.4906 11.8125 12.25V5.25ZM9.87109 8.12109L6.80859 11.1836C6.55156 11.4406 6.13594 11.4406 5.88164 11.1836L4.13164 9.43359C3.87461 9.17656 3.87461 8.76094 4.13164 8.50664C4.38867 8.25234 4.8043 8.24961 5.05859 8.50664L6.34375 9.7918L8.94141 7.19414C9.19844 6.93711 9.61406 6.93711 9.86836 7.19414C10.1227 7.45117 10.1254 7.8668 9.86836 8.12109H9.87109Z" fill="#012638"/>
</g>
<defs>
<clipPath id="clip0_89_718">
<path d="M0.875 0H13.125V14H0.875V0Z" fill="white"/>
</clipPath>
</defs>
</svg>
